<?xml version="1.0" encoding="UTF-8" standalone="no"?>
<svg
   width="12"
   height="12"
   viewBox="0 0 12 12"
   fill="none"
   version="1.1"
   id="svg4"
   sodipodi:docname="done.svg"
   inkscape:version="1.1.1 (3bf5ae0d25, 2021-09-20)"
   xmlns:inkscape="http://www.inkscape.org/namespaces/inkscape"
   xmlns:sodipodi="http://sodipodi.sourceforge.net/DTD/sodipodi-0.dtd"
   xmlns="http://www.w3.org/2000/svg"
   xmlns:svg="http://www.w3.org/2000/svg">
  <defs
     id="defs8" />
  <sodipodi:namedview
     id="namedview6"
     pagecolor="#ffffff"
     bordercolor="#666666"
     borderopacity="1.0"
     inkscape:pageshadow="2"
     inkscape:pageopacity="0.0"
     inkscape:pagecheckerboard="0"
     showgrid="false"
     inkscape:zoom="34.666667"
     inkscape:cx="11.581731"
     inkscape:cy="8.6105769"
     inkscape:window-width="1920"
     inkscape:window-height="1017"
     inkscape:window-x="-8"
     inkscape:window-y="-8"
     inkscape:window-maximized="1"
     inkscape:current-layer="svg4" />
  <path
     d="m 2.2280354,6.1788977 c -0.20071,-0.18966 -0.51716,-0.18071 -0.70683,0.01999 -0.18966,0.2007 -0.18071,0.51716 0.01999,0.70683 z m 8.0725796,-3.20924 c 0.1532,-0.22976 0.0911,-0.5402 -0.1386,-0.69338 -0.2297996,-0.15317 -0.5402496,-0.09108 -0.6934196,0.13868 z m -5.5133896,6.31562 0.34342,-0.36341 z m -3.24603,-2.37956 2.90262,2.74297 0.68683,-0.72682 -2.90261,-2.74297 z m 4.4215,2.57085 4.3379196,-6.50691 -0.8320196,-0.5547 -4.33795,6.50691 z m -1.51888,0.17212 c 0.45029,0.4255303 1.17522,0.34338 1.51888,-0.17212 l -0.83205,-0.5547 z"
     fill="#42ba96"
     id="path2" />
</svg>
