<svg width="16" height="16" viewBox="0 0 16 16" fill="none" xmlns="http://www.w3.org/2000/svg">
<path d="M14.2353 11.1005V5.89947C14.235 5.67145 14.1721 5.4475 14.0528 5.25009C13.9335 5.05268 13.762 4.88874 13.5556 4.77474L8.79739 2.1742C8.59072 2.06008 8.35629 2 8.11765 2C7.87901 2 7.64458 2.06008 7.43791 2.1742L2.67974 4.77474C2.47328 4.88874 2.30179 5.05268 2.18248 5.25009C2.06318 5.4475 2.00024 5.67145 2 5.89947V11.1005C2.00024 11.3286 2.06318 11.5525 2.18248 11.7499C2.30179 11.9473 2.47328 12.1113 2.67974 12.2253L7.43791 14.8258C7.64458 14.9399 7.87901 15 8.11765 15C8.35629 15 8.59072 14.9399 8.79739 14.8258L13.5556 12.2253C13.762 12.1113 13.9335 11.9473 14.0528 11.7499C14.1721 11.5525 14.235 11.3286 14.2353 11.1005Z" stroke="#333333" stroke-linecap="round" stroke-linejoin="round"/>
<path d="M2.38232 5.44141L8.11762 8.50023L13.8529 5.44141" stroke="#333333" stroke-linecap="round" stroke-linejoin="round"/>
<path d="M8.11768 14.6176V8.5" stroke="#333333" stroke-linecap="round" stroke-linejoin="round"/>
</svg>
