<svg width="16" height="16" viewBox="0 0 16 16" fill="none" xmlns="http://www.w3.org/2000/svg">
<path d="M5.5253 1.29289L5.17175 0.93934V0.93934L5.5253 1.29289ZM2.29291 4.52529L1.93935 4.17174V4.17173L2.29291 4.52529ZM12.9546 11.5C12.9546 11.2239 13.1784 11 13.4546 11C13.7307 11 13.9546 11.2239 13.9546 11.5H12.9546ZM13.9546 4.5C13.9546 4.77614 13.7307 5 13.4546 5C13.1784 5 12.9546 4.77614 12.9546 4.5H13.9546ZM5.3182 1.31818C5.3182 1.04204 5.54205 0.818182 5.8182 0.818182C6.09434 0.818182 6.3182 1.04204 6.3182 1.31818H5.3182ZM2.3182 5.31818C2.04205 5.31818 1.8182 5.09432 1.8182 4.81818C1.8182 4.54204 2.04205 4.31818 2.3182 4.31818V5.31818ZM3.00001 14.5H12.4546V15.5H3.00001V14.5ZM12.4546 1.5H6.23241V0.5H12.4546V1.5ZM5.87886 1.64645L2.64646 4.87884L1.93935 4.17173L5.17175 0.93934L5.87886 1.64645ZM2.50001 5.2324V7.3H1.50001V5.2324H2.50001ZM2.50001 7.3V10.2105H1.50001V7.3H2.50001ZM2.50001 10.2105V12.2H1.50001V10.2105H2.50001ZM2.50001 12.2V14H1.50001V12.2H2.50001ZM12.9546 14V11.5H13.9546V14H12.9546ZM12.9546 4.5V2H13.9546V4.5H12.9546ZM6.3182 1.31818V3.81818H5.3182V1.31818H6.3182ZM4.8182 5.31818H2.3182V4.31818H4.8182V5.31818ZM6.23241 1.5C6.0998 1.5 5.97262 1.55268 5.87886 1.64645L5.17175 0.93934C5.45305 0.658035 5.83458 0.5 6.23241 0.5V1.5ZM2.64646 4.87884C2.55269 4.97261 2.50001 5.09979 2.50001 5.2324H1.50001C1.50001 4.83457 1.65805 4.45304 1.93935 4.17174L2.64646 4.87884ZM12.4546 14.5C12.7307 14.5 12.9546 14.2761 12.9546 14H13.9546C13.9546 14.8284 13.283 15.5 12.4546 15.5V14.5ZM3.00001 15.5C2.17159 15.5 1.50001 14.8284 1.50001 14H2.50001C2.50001 14.2761 2.72387 14.5 3.00001 14.5V15.5ZM6.3182 3.81818C6.3182 4.64661 5.64662 5.31818 4.8182 5.31818V4.31818C5.09434 4.31818 5.3182 4.09432 5.3182 3.81818H6.3182ZM12.4546 0.5C13.283 0.5 13.9546 1.17157 13.9546 2H12.9546C12.9546 1.72386 12.7307 1.5 12.4546 1.5V0.5Z" fill="#333333"/>
<path d="M12.1819 6.09081L14.7274 7.9999L12.1819 10.2272" stroke="#333333" stroke-linecap="round" stroke-linejoin="round"/>
<path d="M14.7272 7.99991L8.36359 7.99991" stroke="#333333" stroke-linecap="round" stroke-linejoin="round"/>
</svg>
