<svg width="16" height="16" viewBox="0 0 16 16" fill="none" xmlns="http://www.w3.org/2000/svg">
<path d="M7.99979 8L1.4375 14.5623" stroke="#333333"/>
<path d="M4.93739 8L1.4375 11.4999" stroke="#333333"/>
<path d="M7.99989 11.0625L4.5 14.5624" stroke="#333333"/>
<path d="M1.5 8.0332H7.96642V14.4996H2C1.72386 14.4996 1.5 14.2758 1.5 13.9996V8.0332Z" stroke="#333333"/>
<path d="M8.0332 8.0332H13.9996C14.2758 8.0332 14.4996 8.25706 14.4996 8.5332V13.9996C14.4996 14.2758 14.2758 14.4996 13.9996 14.4996H8.0332V8.0332Z" stroke="#333333"/>
<path d="M1.5 2C1.5 1.72386 1.72386 1.5 2 1.5H7.46642C7.74257 1.5 7.96642 1.72386 7.96642 2V7.96642H1.5V2Z" stroke="#333333"/>
</svg>
