<?xml version="1.0" encoding="UTF-8" standalone="no"?>
<svg
   width="16"
   height="16"
   viewBox="0 0 24 24"
   fill="none"
   version="1.1"
   id="svg4"
   sodipodi:docname="pmi-element.svg"
   inkscape:version="1.1.1 (3bf5ae0d25, 2021-09-20)"
   xmlns:inkscape="http://www.inkscape.org/namespaces/inkscape"
   xmlns:sodipodi="http://sodipodi.sourceforge.net/DTD/sodipodi-0.dtd"
   xmlns="http://www.w3.org/2000/svg"
   xmlns:svg="http://www.w3.org/2000/svg">
  <defs
     id="defs8" />
  <sodipodi:namedview
     id="namedview6"
     pagecolor="#ffffff"
     bordercolor="#666666"
     borderopacity="1.0"
     inkscape:pageshadow="2"
     inkscape:pageopacity="0.0"
     inkscape:pagecheckerboard="0"
     showgrid="false"
     inkscape:zoom="17.333333"
     inkscape:cx="1.9326923"
     inkscape:cy="15.317308"
     inkscape:window-width="1920"
     inkscape:window-height="1017"
     inkscape:window-x="-8"
     inkscape:window-y="-8"
     inkscape:window-maximized="1"
     inkscape:current-layer="svg4" />
  <path
     d="M15.6 1L16.1352 0.474557L15.9147 0.25H15.6V1ZM21 6.5H21.75V6.19336L21.5352 5.97456L21 6.5ZM7 17.25C6.58579 17.25 6.25 17.5858 6.25 18C6.25 18.4142 6.58579 18.75 7 18.75V17.25ZM17 18.75C17.4142 18.75 17.75 18.4142 17.75 18C17.75 17.5858 17.4142 17.25 17 17.25V18.75ZM7 12.25C6.58579 12.25 6.25 12.5858 6.25 13C6.25 13.4142 6.58579 13.75 7 13.75V12.25ZM17 13.75C17.4142 13.75 17.75 13.4142 17.75 13C17.75 12.5858 17.4142 12.25 17 12.25V13.75ZM7 7.25C6.58579 7.25 6.25 7.58579 6.25 8C6.25 8.41421 6.58579 8.75 7 8.75V7.25ZM14 8.75C14.4142 8.75 14.75 8.41421 14.75 8C14.75 7.58579 14.4142 7.25 14 7.25V8.75ZM20 22.25H4V23.75H20V22.25ZM3.75 22V2H2.25V22H3.75ZM4 1.75H15.6V0.25H4V1.75ZM15.0648 1.52544L20.4648 7.02544L21.5352 5.97456L16.1352 0.474557L15.0648 1.52544ZM4 22.25C3.86193 22.25 3.75 22.1381 3.75 22H2.25C2.25 22.9665 3.0335 23.75 4 23.75V22.25ZM20 23.75C20.9665 23.75 21.75 22.9665 21.75 22H20.25C20.25 22.1381 20.1381 22.25 20 22.25V23.75ZM3.75 2C3.75 1.86193 3.86193 1.75 4 1.75V0.25C3.0335 0.25 2.25 1.0335 2.25 2H3.75ZM20.25 6.5V22H21.75V6.5H20.25ZM7 18.75H17V17.25H7V18.75ZM7 13.75H17V12.25H7V13.75ZM7 8.75H14V7.25H7V8.75Z"
     fill="#333333"
     id="path2" />
</svg>
