<?xml version="1.0" encoding="UTF-8" standalone="no"?>
<svg
   width="16"
   height="16"
   viewBox="0 0 24 24"
   fill="none"
   version="1.1"
   id="svg22"
   sodipodi:docname="pmi.svg"
   inkscape:version="1.1.1 (3bf5ae0d25, 2021-09-20)"
   xmlns:inkscape="http://www.inkscape.org/namespaces/inkscape"
   xmlns:sodipodi="http://sodipodi.sourceforge.net/DTD/sodipodi-0.dtd"
   xmlns="http://www.w3.org/2000/svg"
   xmlns:svg="http://www.w3.org/2000/svg">
  <defs
     id="defs26" />
  <sodipodi:namedview
     id="namedview24"
     pagecolor="#ffffff"
     bordercolor="#666666"
     borderopacity="1.0"
     inkscape:pageshadow="2"
     inkscape:pageopacity="0.0"
     inkscape:pagecheckerboard="0"
     showgrid="false"
     inkscape:zoom="17.333333"
     inkscape:cx="10.644231"
     inkscape:cy="15.836538"
     inkscape:window-width="1920"
     inkscape:window-height="1017"
     inkscape:window-x="-8"
     inkscape:window-y="-8"
     inkscape:window-maximized="1"
     inkscape:current-layer="svg22" />
  <path
     d="M12.5 5C12.7536 5 13.0026 5.0647 13.2222 5.1876L18.4797 8.06213C18.8005 8.23751 19 8.57396 19 8.93955V12.3478V14.8006C18.9997 15.0461 18.9329 15.2873 18.8061 15.4999C18.6793 15.7125 18.4971 15.889 18.2778 16.0118L16.2554 17.1321L15.383 17.6154L14.9468 17.857L14.5106 18.0987L13.2222 18.8124C13.0026 18.9353 12.7536 19 12.5 19C12.2464 19 11.9974 18.9353 11.7778 18.8124L6.72222 16.0118C6.50286 15.889 6.32065 15.7125 6.19389 15.4999C6.06713 15.2873 6.00026 15.0461 6 14.8006V9.19942C6.00026 8.95387 6.06713 8.71269 6.19389 8.5001C6.32065 8.2875 6.50286 8.11096 6.72222 7.98818L11.7778 5.1876C11.9974 5.0647 12.2464 5 12.5 5Z"
     stroke="#333333"
     stroke-width="1.5"
     stroke-linecap="round"
     stroke-linejoin="round"
     id="path2" />
  <path
     d="M6.49994 8.5L12.6521 12L15.6087 10.2609L18.5652 8.52174"
     stroke="#333333"
     stroke-width="1.5"
     stroke-linecap="round"
     stroke-linejoin="round"
     id="path4" />
  <path
     d="M12.6876 18.6889L12.6522 12"
     stroke="#333333"
     stroke-width="1.5"
     stroke-linecap="round"
     stroke-linejoin="round"
     id="path6" />
  <path
     d="M1 7.4C0.668629 7.4 0.4 7.66863 0.4 8C0.4 8.33137 0.668629 8.6 1 8.6V7.4ZM4 8.6C4.33137 8.6 4.6 8.33137 4.6 8C4.6 7.66863 4.33137 7.4 4 7.4V8.6ZM2.5 16V16.6H3.1V16H2.5ZM1 15.4C0.668629 15.4 0.4 15.6686 0.4 16C0.4 16.3314 0.668629 16.6 1 16.6V15.4ZM4 16.6C4.33137 16.6 4.6 16.3314 4.6 16C4.6 15.6686 4.33137 15.4 4 15.4V16.6ZM1 8.6H2.5V7.4H1V8.6ZM2.5 8.6H4V7.4H2.5V8.6ZM1.9 8V16H3.1V8H1.9ZM2.5 15.4H1V16.6H2.5V15.4ZM1 16.6H4V15.4H1V16.6Z"
     fill="#333333"
     id="path8" />
  <path
     d="M23 18.5L20.5 17"
     stroke="#333333"
     stroke-width="1.2"
     stroke-linecap="round"
     id="path10" />
  <path
     d="M16.5 22.5L14 21"
     stroke="#333333"
     stroke-width="1.2"
     stroke-linecap="round"
     id="path12" />
  <path
     d="M23 6.49997L21 7.55798"
     stroke="#333333"
     stroke-width="1.2"
     stroke-linecap="round"
     id="path14" />
  <path
     d="M16 2.42917L14 3.48718"
     stroke="#333333"
     stroke-width="1.2"
     stroke-linecap="round"
     id="path16" />
  <path
     d="M21.5 17.8146L15 21.8146"
     stroke="#333333"
     stroke-width="1.2"
     id="path18" />
  <path
     d="M22 7L15.5 3"
     stroke="#333333"
     stroke-width="1.2"
     id="path20" />
</svg>
